<svg width="122" height="21" fill="none" xmlns="http://www.w3.org/2000/svg"><path d="M10.08 9.54L5.66 5.12 10.08.7l4.42 4.42-4.42 4.42zm5.64 5.64l-4.42-4.42 4.42-4.42 4.42 4.42-4.42 4.42zm-11.28 0L.02 10.76l4.42-4.42 4.42 4.42-4.42 4.42zm5.64 5.64L5.66 16.4l4.42-4.42 4.42 4.42-4.42 4.42zM26.972 18V4.88h2l2.52 7c.16.453.313.913.46 1.38l.48 1.36h.08c.16-.453.306-.907.44-1.36.147-.467.3-.927.46-1.38l2.48-7h2.02V18h-1.56v-7.22c0-.587.027-1.233.08-1.94.053-.707.1-1.353.14-1.94h-.08l-1.04 2.98-2.48 6.8h-1.1l-2.48-6.8-1.04-2.98h-.08c.04.587.08 1.233.12 1.94.053.707.08 1.353.08 1.94V18h-1.5zm14.531 0V4.88h1.66V18h-1.66zm10.214.24a5.574 5.574 0 01-2.28-.46 5.365 5.365 0 01-1.82-1.32c-.507-.587-.907-1.3-1.2-2.14-.28-.853-.42-1.813-.42-2.88 0-1.053.147-2 .44-2.84.293-.84.7-1.553 1.22-2.14a5.2 5.2 0 011.84-1.34 5.56 5.56 0 012.32-.48c.8 0 1.5.167 2.1.5.613.32 1.113.693 1.5 1.12l-.9 1.08a4.27 4.27 0 00-1.18-.9c-.44-.227-.94-.34-1.5-.34-.627 0-1.193.127-1.7.38-.507.24-.94.593-1.3 1.06-.36.453-.64 1.007-.84 1.66-.187.653-.28 1.387-.28 2.2 0 .827.093 1.573.28 2.24.2.653.473 1.213.82 1.68.347.467.767.827 1.26 1.08.507.253 1.073.38 1.7.38.64 0 1.2-.127 1.68-.38a5.43 5.43 0 001.36-1.1l.92 1.04a5.83 5.83 0 01-1.76 1.4c-.653.333-1.407.5-2.26.5zm6.466-.24V4.88h4.1c.666 0 1.28.067 1.84.2.573.12 1.06.327 1.46.62.413.293.733.673.96 1.14.226.467.34 1.04.34 1.72 0 1.027-.267 1.847-.8 2.46-.534.613-1.254 1.033-2.16 1.26l3.34 5.72h-1.88l-3.16-5.54h-2.38V18h-1.66zm1.66-6.9h2.2c1.026 0 1.813-.207 2.36-.62.546-.427.82-1.067.82-1.92 0-.867-.273-1.473-.82-1.82-.547-.347-1.334-.52-2.36-.52h-2.2v4.88zm14.566 7.14c-.826 0-1.586-.16-2.28-.48a5.133 5.133 0 01-1.76-1.36c-.493-.6-.88-1.32-1.16-2.16-.266-.853-.4-1.807-.4-2.86s.134-1.993.4-2.82c.28-.84.667-1.547 1.16-2.12a4.92 4.92 0 011.76-1.34 5.574 5.574 0 012.28-.46c.827 0 1.58.16 2.26.48a4.874 4.874 0 011.78 1.34c.507.573.894 1.28 1.16 2.12.28.827.42 1.76.42 2.8 0 1.053-.14 2.007-.42 2.86-.266.84-.653 1.56-1.16 2.16a5.08 5.08 0 01-1.78 1.36c-.68.32-1.433.48-2.26.48zm0-1.46c.587 0 1.114-.127 1.58-.38a3.49 3.49 0 001.22-1.08 5.4 5.4 0 00.8-1.7c.187-.667.28-1.413.28-2.24 0-.813-.093-1.547-.28-2.2-.186-.653-.453-1.207-.8-1.66-.333-.453-.74-.8-1.22-1.04a3.257 3.257 0 00-1.58-.38 3.38 3.38 0 00-1.6.38 3.61 3.61 0 00-1.22 1.04c-.333.453-.593 1.007-.78 1.66-.186.653-.28 1.387-.28 2.2 0 .827.094 1.573.28 2.24.187.653.447 1.22.78 1.7.347.467.754.827 1.22 1.08a3.38 3.38 0 001.6.38zm13.402 1.46a5.573 5.573 0 01-2.28-.46 5.364 5.364 0 01-1.82-1.32c-.507-.587-.907-1.3-1.2-2.14-.28-.853-.42-1.813-.42-2.88 0-1.053.146-2 .44-2.84.293-.84.7-1.553 1.22-2.14a5.2 5.2 0 011.84-1.34c.706-.32 1.48-.48 2.32-.48.8 0 1.5.167 2.1.5.613.32 1.113.693 1.5 1.12l-.9 1.08a4.271 4.271 0 00-1.18-.9c-.44-.227-.94-.34-1.5-.34a3.75 3.75 0 00-1.7.38c-.507.24-.94.593-1.3 1.06-.36.453-.64 1.007-.84 1.66-.187.653-.28 1.387-.28 2.2 0 .827.093 1.573.28 2.24.2.653.473 1.213.82 1.68.346.467.766.827 1.26 1.08a3.75 3.75 0 001.7.38c.64 0 1.2-.127 1.68-.38a5.43 5.43 0 001.36-1.1l.92 1.04a5.832 5.832 0 01-1.76 1.4c-.654.333-1.407.5-2.26.5zm6.466-.24V4.88h1.66v5.5h6.1v-5.5h1.68V18h-1.68v-6.18h-6.1V18h-1.66zm13.046 0V4.88h1.66V18h-1.66zm5.254 0V4.88h3.74c.734 0 1.4.067 2 .2.614.133 1.134.353 1.56.66.427.293.76.687 1 1.18.24.493.36 1.1.36 1.82 0 .693-.12 1.293-.36 1.8a3.253 3.253 0 01-.98 1.26c-.426.333-.94.587-1.54.76-.586.16-1.24.24-1.96.24h-2.16V18h-1.66zm1.66-6.56h1.96c1.147 0 1.994-.213 2.54-.64.56-.44.84-1.127.84-2.06 0-.947-.293-1.6-.88-1.96-.573-.373-1.433-.56-2.58-.56h-1.88v5.22z" fill="#fff"/></svg>